<svg width="324" height="288" viewBox="0 0 324 288" fill="none" xmlns="http://www.w3.org/2000/svg">
<path fill-rule="evenodd" clip-rule="evenodd" d="M116.218 53.3603C67.3149 61.3738 30 103.829 30 155C30 211.885 76.1146 258 133 258C165.309 258 194.144 243.124 213.028 219.848C215.006 219.949 216.997 220 219 220C230.31 220 241.239 218.367 251.564 215.324C229.574 258.459 184.737 288 133 288C59.5461 288 -3.17515e-05 228.454 -3.17515e-05 155C-3.17515e-05 81.5461 59.5461 22 133 22C135.095 22 137.179 22.0485 139.251 22.1443C129.919 31.1282 122.101 41.6737 116.218 53.3603Z" fill="#6B6C8B"/>
<path fill-rule="evenodd" clip-rule="evenodd" d="M175.533 187.491C174.822 182.069 174.111 176.159 173.4 169.76C172.467 159.493 171.627 148.76 170.88 137.56C170.32 126.173 170.04 115.067 170.04 104.24C170.04 93.6 170.413 83.52 171.16 74C171.907 64.48 172.933 56.2667 174.24 49.36C172.56 51.04 170.6 53.28 168.36 56.08C166.12 58.88 163.973 61.4933 161.92 63.92C160.053 66.16 158.84 67.28 158.28 67.28C157.72 67.28 157.44 66.8133 157.44 65.88V65.04C159.68 60.1867 162.667 54.68 166.4 48.52C170.133 42.1733 174.053 35.92 178.16 29.76C182.267 23.4133 186 17.8133 189.36 12.96C189.36 12.7733 189.64 12.68 190.2 12.68C191.32 12.68 193 13.3333 195.24 14.64C197.48 15.9467 199.533 17.44 201.4 19.12C203.267 20.8 204.2 22.3867 204.2 23.88V24.16C199.533 32 195.8 41.4267 193 52.44C190.387 63.2667 188.52 75.0267 187.4 87.72C186.467 100.227 186 113.013 186 126.08C186 133.36 186.093 140.547 186.28 147.64C186.653 154.733 187.027 161.64 187.4 168.36C188.893 152.867 192.067 137.933 196.92 123.56C201.773 109 207.187 94.6267 213.16 80.44C219.133 66.0667 224.453 51.32 229.12 36.2C232.48 25.3733 235.373 17.16 237.8 11.56C239.721 7.30568 241.491 4.06032 243.11 1.8239C236.924 0.62692 230.535 0 224 0C168.772 0 124 44.7715 124 100C124 137.643 144.8 170.429 175.533 187.491ZM260.403 6.83233C261.761 9.06155 262.44 11.2908 262.44 13.52C262.44 14.4533 262.347 15.1067 262.16 15.48C259.36 28.7333 256.933 42.64 254.88 57.2C252.827 71.5733 251.8 86.04 251.8 100.6C251.8 107.507 252.173 115.067 252.92 123.28C253.667 131.493 254.787 139.333 256.28 146.8C257.96 154.267 259.92 160.333 262.16 165C264.4 169.667 267.013 172 270 172C272.053 172 274.387 170.693 277 168.08C279.8 165.467 282.693 161.36 285.68 155.76C286.987 153.52 288.48 150.253 290.16 145.96C292.027 141.48 293.8 137.467 295.48 133.92C297.16 130.373 298.28 128.6 298.84 128.6C299.4 128.6 299.68 129.72 299.68 131.96C299.68 134.387 299.12 137.373 298 140.92C296.88 144.467 295.573 147.92 294.08 151.28C292.773 154.453 291.747 156.88 291 158.56C285.587 169.387 280.36 177.133 275.32 181.8C270.467 186.28 266.08 188.52 262.16 188.52C257.493 188.52 253.387 186 249.84 180.96C246.293 175.733 243.307 168.92 240.88 160.52C238.453 152.12 236.493 142.88 235 132.8C233.507 122.533 232.387 112.267 231.64 102C231.08 91.5467 230.8 81.9333 230.8 73.16V64.76C230.8 61.96 230.893 59.16 231.08 56.36C227.533 65.1333 223.427 74.56 218.76 84.64C214.28 94.5333 209.893 105.92 205.6 118.8C201.307 131.68 197.76 146.987 194.96 164.72C194.587 167.52 194.307 170.413 194.12 173.4C193.933 176.2 193.84 179.093 193.84 182.08C193.84 186.985 193.983 191.46 194.27 195.506C203.662 198.427 213.647 200 224 200C279.228 200 324 155.228 324 100C324 57.6151 297.631 21.3891 260.403 6.83233Z" fill="#EE8BAE"/>
</svg>
